Coordinates
version=1
nRows=21
nColumns=22
inDegrees=yes

Units are S.I. units (second, meters, Newtons, ...)
If the header above contains a line with 'inDegrees', this indicates whether rotational values are in degrees (yes) or radians (no).

endheader
time	pelvis_tilt	pelvis_list	pelvis_rotation	pelvis_tx	pelvis_ty	pelvis_tz	hip_flexion_r	hip_adduction_r	hip_rotation_r	knee_angle_r	ankle_angle_r	subtalar_angle_r	hip_flexion_l	hip_adduction_l	hip_rotation_l	knee_angle_l	ankle_angle_l	subtalar_angle_l	lumbar_extension	lumbar_bending	lumbar_rotation
      4.72000000	      0.96282265	      1.75544137	    -88.66941951	      0.43456550	      0.90441180	      0.44167670	    -13.61375013	      2.74741975	      9.77369900	    -26.06619761	      0.79851831	      2.05671023	     29.22671078	      1.71488866	     -0.91305052	    -29.18733538	      0.43739295	     -1.75654485	      0.76441208	     -3.63172077	      6.02487378
      4.73000000	      1.35735515	      1.59210354	    -89.10203328	      0.43636647	      0.90633277	      0.45188090	    -12.74795131	      2.11022205	      9.05778854	    -28.49483261	     -1.18894985	      2.96229912	     28.29377402	      2.04267246	     -1.41444233	    -29.20967322	      1.08996143	     -1.75186496	      0.71671949	     -4.11970910	      6.17086057
      4.74000000	      1.71042483	      1.41789805	    -89.57875296	      0.43810477	      0.90827149	      0.46166730	    -11.67261952	      1.43761802	      8.22751595	    -31.16390708	     -3.08648436	      3.82065038	     27.29033069	      2.32354568	     -1.95753685	    -29.07136604	      1.71829533	     -1.74748910	      0.60591442	     -4.53802599	      6.32001772
      4.75000000	      2.04265154	      1.24376536	    -90.09825348	      0.43980787	      0.91015383	      0.47099671	    -10.36642151	      0.69134350	      7.27252492	    -34.07882247	     -4.83871673	      4.46037773	     26.26131946	      2.58001312	     -2.56585131	    -28.82129971	      2.25583190	     -1.72312225	      0.43970116	     -4.90934821	      6.46862031
      4.76000000	      2.35533660	      1.07918319	    -90.64848893	      0.44148683	      0.91190427	      0.47986333	     -8.83840930	     -0.12922807	      6.25060487	    -37.19713390	     -6.39433084	      5.10532464	     25.25369388	      2.81942350	     -3.22766797	    -28.52199351	      2.77336364	     -1.71461400	      0.22800434	     -5.23911724	      6.57031281
      4.77000000	      2.65759711	      0.95100063	    -91.21480542	      0.44316807	      0.91345073	      0.48827326	     -7.08261021	     -1.02374684	      5.20844800	    -40.46685751	     -7.73378628	      5.66907606	     24.32502356	      3.05749383	     -3.93290461	    -28.22119751	      3.25303689	     -1.73156614	      0.00679421	     -5.53999513	      6.60888794
      4.78000000	      2.95283035	      0.83009054	    -91.80150769	      0.44484555	      0.91488027	      0.49627655	     -5.17058013	     -1.98560389	      4.20167533	    -43.79748308	     -8.91180664	      5.98032948	     23.42174709	      3.31349563	     -4.60400943	    -27.87951471	      3.63747773	     -1.74054522	     -0.25020675	     -5.81982538	      6.64711499
      4.79000000	      3.25089353	      0.76143674	    -92.36846147	      0.44655380	      0.91607835	      0.50390060	     -3.09239622	     -2.98968906	      3.27274668	    -47.13136247	     -9.78881696	      6.11265250	     22.64203241	      3.59292645	     -5.27805034	    -27.58704200	      3.97397609	     -1.78900129	     -0.48651316	     -6.09657808	      6.59140611
      4.80000000	      3.54247095	      0.71640111	    -92.90082324	      0.44829630	      0.91714041	      0.51122270	     -0.93145639	     -3.99395870	      2.46778967	    -50.37358833	    -10.35306658	      6.01667969	     21.93502131	      3.89756884	     -5.89688046	    -27.31715161	      4.26494216	     -1.87096231	     -0.72650977	     -6.36178910	      6.45305100
      4.81000000	      3.82904247	      0.67572699	    -93.37050733	      0.45008926	      0.91812996	      0.51831992	      1.24717299	     -4.97451336	      1.78427991	    -53.45454763	    -10.55008206	      5.73633387	     21.27081593	      4.23534867	     -6.44309485	    -27.06319588	      4.51596631	     -1.98285682	     -0.98322883	     -6.62300264	      6.22244886
      4.82000000	      4.09201853	      0.63856195	    -93.75354450	      0.45191963	      0.91908293	      0.52524150	      3.40366734	     -5.89137481	      1.20266908	    -56.31849023	    -10.35065624	      5.31488577	     20.64140835	      4.58513534	     -6.90182558	    -26.82135719	      4.73013872	     -2.14246082	     -1.25461008	     -6.86926936	      5.86218980
      4.83000000	      4.33076768	      0.58152405	    -94.03843192	      0.45381553	      0.92006713	      0.53205074	      5.48476957	     -6.74042517	      0.69342213	    -58.92420092	     -9.82570845	      4.83195158	     19.99604938	      4.95955511	     -7.22673854	    -26.55926350	      4.95726971	     -2.34496342	     -1.55915835	     -7.09440547	      5.41442524
      4.84000000	      4.55695226	      0.47044506	    -94.20902632	      0.45577207	      0.92116936	      0.53878830	      7.42240307	     -7.54000698	      0.21951734	    -61.23627222	     -9.03485577	      4.46983636	     19.28547345	      5.36181183	     -7.46759259	    -26.25723030	      5.09341133	     -2.52696489	     -1.93483671	     -7.32025270	      4.83519463
      4.85000000	      4.74276530	      0.33858643	    -94.27264258	      0.45774646	      0.92235693	      0.54545943	      9.23511951	     -8.24738816	     -0.22424337	    -63.23727675	     -8.09235347	      4.13212482	     18.52743971	      5.75963253	     -7.58641518	    -25.89547103	      5.23042133	     -2.72348719	     -2.33711256	     -7.51307742	      4.14344724
      4.86000000	      4.88568713	      0.17981168	    -94.23852892	      0.45970197	      0.92362521	      0.55202006	     10.91132448	     -8.86428481	     -0.65320419	    -64.92953571	     -7.11033707	      3.81117017	     17.72873462	      6.13554320	     -7.61637449	    -25.50209478	      5.35529849	     -2.93035120	     -2.77858729	     -7.67440699	      3.38246027
      4.87000000	      4.98337344	      0.00141177	    -94.12701590	      0.46159694	      0.92495474	      0.55844464	     12.45363520	     -9.37808663	     -1.04756421	    -66.31596814	     -6.13959332	      3.47265327	     16.89143620	      6.47574485	     -7.57753515	    -25.07050937	      5.49796399	     -3.16045470	     -3.24951739	     -7.79952902	      2.57978447
      4.88000000	      5.04540315	     -0.16724773	    -93.95281060	      0.46338763	      0.92632098	      0.56472113	     13.89022369	     -9.78612813	     -1.38632841	    -67.39823504	     -5.22500646	      3.34170304	     16.03437872	      6.77753833	     -7.49190804	    -24.57351215	      5.56607839	     -3.28529932	     -3.70899073	     -7.90044193	      1.72464691
      4.89000000	      5.06093335	     -0.32410707	    -93.73876886	      0.46503848	      0.92765163	      0.57076826	     15.23704697	    -10.06676789	     -1.65582838	    -68.20448557	     -4.33994260	      3.27463623	     15.19549999	      7.01869834	     -7.38024496	    -24.08005836	      5.67875536	     -3.38182579	     -4.16583886	     -7.96434815	      0.87364874
      4.90000000	      5.05721126	     -0.47739478	    -93.48537522	      0.46659884	      0.92900947	      0.57671764	     16.46221003	    -10.27963233	     -1.89504645	    -68.71715455	     -3.51895538	      3.19264734	     14.31627094	      7.23044333	     -7.28674053	    -23.50174027	      5.74380200	     -3.54903171	     -4.60291366	     -8.01568194	      0.00860240
      4.91000000	      4.99595848	     -0.56691128	    -93.20375481	      0.46804034	      0.93023745	      0.58243802	     17.64480684	    -10.34915581	     -2.06709701	    -68.97024926	     -2.66735095	      3.29552515	     13.51763228	      7.36539194	     -7.16532035	    -22.93876116	      5.81676641	     -3.62641569	     -4.97113690	     -8.01015670	     -0.83599190
      4.92000000	      4.89203326	     -0.60217854	    -92.91665697	      0.46936476	      0.93134106	      0.58801899	     18.76968104	    -10.31611829	     -2.19509342	    -68.96863866	     -1.79677074	      3.45883475	     12.77160120	      7.43606648	     -7.07075532	    -22.36458313	      5.95798629	     -3.67673791	     -5.26335946	     -7.96244037	     -1.62516784
